<?xml version="1.0" encoding="iso-8859-1"?>
<!-- Generator: Adobe Illustrator 19.0.0, SVG Export Plug-In . SVG Version: 6.00 Build 0)  -->
<svg version="1.1" id="Layer_1" xmlns="http://www.w3.org/2000/svg" xmlns:xlink="http://www.w3.org/1999/xlink" x="0px" y="0px"
	 viewBox="0 0 193.494 47.322" style="enable-background:new 0 0 193.494 47.322;" xml:space="preserve">
<g id="XMLID_2_">
	<path id="XMLID_57_" d="M8.738,8.425H4.445v4.536h5.057v1.338H2.681V1.648h6.778v1.355H4.445v4.075h4.292V8.425z"/>
	<path id="XMLID_59_" d="M19.764,14.299h-1.772l-4.9-9.332l-0.052,0.018v9.314h-1.764V1.648h1.764l4.9,9.306l0.052-0.009V1.648
		h1.772V14.299z"/>
	<path id="XMLID_61_" d="M27.949,11.119c0-0.579-0.165-1.056-0.495-1.429s-0.912-0.714-1.747-1.021
		c-1.188-0.371-2.1-0.849-2.737-1.434s-0.956-1.364-0.956-2.337c0-0.996,0.352-1.817,1.056-2.463
		c0.704-0.646,1.606-0.969,2.707-0.969c1.17,0,2.108,0.359,2.815,1.077c0.707,0.719,1.048,1.619,1.025,2.703L29.6,5.297h-1.694
		c0-0.741-0.197-1.341-0.591-1.798s-0.912-0.687-1.555-0.687c-0.625,0-1.111,0.197-1.456,0.591
		c-0.345,0.394-0.517,0.886-0.517,1.477c0,0.551,0.182,1.005,0.547,1.364c0.365,0.359,0.979,0.698,1.842,1.017
		c1.153,0.376,2.03,0.869,2.633,1.477c0.603,0.608,0.904,1.396,0.904,2.363c0,1.031-0.355,1.853-1.064,2.463
		c-0.71,0.611-1.641,0.917-2.793,0.917c-1.112,0-2.08-0.331-2.902-0.991c-0.822-0.66-1.219-1.607-1.19-2.841l0.018-0.052h1.703
		c0,0.857,0.227,1.498,0.682,1.92c0.455,0.423,1.018,0.634,1.69,0.634c0.654,0,1.167-0.184,1.538-0.552
		C27.764,12.233,27.949,11.739,27.949,11.119z"/>
	<path id="XMLID_63_" d="M37.28,11.101h-3.779l-0.913,3.198h-1.833l3.797-12.651h1.711l3.763,12.651h-1.833L37.28,11.101z
		 M33.9,9.702h2.989l-1.46-5.144h-0.052L33.9,9.702z"/>
	<path id="XMLID_66_" d="M47.925,3.004h-3.354v11.295h-1.772V3.004H39.47V1.648h8.455V3.004z"/>
</g>
<g id="XMLID_4_">
	<path id="XMLID_78_" d="M89.653,43.531h15.475v2.078H87.184V15.647h2.47V43.531z"/>
	<path id="XMLID_80_" d="M111.397,45.61h-2.469V15.647h2.469V45.61z"/>
	<path id="XMLID_82_" d="M138.882,41.576c-0.659,1.084-1.876,2.099-3.653,3.045c-1.777,0.947-4.016,1.421-6.719,1.421
		c-3.444,0-6.263-1.187-8.458-3.561c-2.195-2.373-3.293-5.446-3.293-9.22v-5.494c0-3.705,1.063-6.723,3.19-9.055
		c2.126-2.332,4.877-3.498,8.252-3.498c3.251,0,5.834,0.857,7.748,2.572c1.914,1.715,2.843,3.896,2.789,6.544l-0.062,0.124h-2.264
		c0-2.071-0.714-3.779-2.141-5.124s-3.45-2.017-6.071-2.017c-2.689,0-4.856,0.975-6.503,2.922c-1.646,1.948-2.469,4.445-2.469,7.491
		v5.535c0,3.128,0.857,5.694,2.572,7.697c1.715,2.003,3.951,3.004,6.709,3.004c2.099,0,3.813-0.315,5.145-0.946
		c1.331-0.631,2.257-1.365,2.778-2.202v-7.676h-8.067v-2.1h10.516V41.576z"/>
	<path id="XMLID_84_" d="M166.45,45.61h-2.47V31.821h-17.019V45.61h-2.47V15.647h2.47v14.076h17.019V15.647h2.47V45.61z"/>
	<path id="XMLID_86_" d="M191.774,17.745h-10.207V45.61h-2.449V17.745h-10.557v-2.099h23.213V17.745z"/>
</g>
<g id="XMLID_3_">
	<path id="XMLID_68_" d="M15.517,37.829c0-1.193-0.306-2.137-0.916-2.829s-1.705-1.368-3.282-2.027
		c-3.073-1.083-5.385-2.312-6.935-3.684c-1.55-1.371-2.325-3.292-2.325-5.762c0-2.456,0.885-4.455,2.654-5.999
		c1.77-1.543,4.027-2.315,6.771-2.315c2.909,0,5.248,0.823,7.018,2.469c1.77,1.646,2.627,3.855,2.572,6.626l-0.041,0.124h-5.639
		c0-1.55-0.347-2.727-1.039-3.529c-0.693-0.803-1.685-1.204-2.974-1.204c-1.111,0-1.976,0.367-2.593,1.101
		c-0.617,0.734-0.926,1.65-0.926,2.748c0,1.015,0.35,1.852,1.049,2.51c0.7,0.659,1.9,1.379,3.602,2.161
		c2.895,0.961,5.086,2.175,6.575,3.643c1.489,1.469,2.233,3.444,2.233,5.927c0,2.565-0.871,4.583-2.613,6.051
		c-1.743,1.468-4.054,2.202-6.936,2.202c-2.84,0-5.268-0.793-7.285-2.377c-2.017-1.585-2.991-3.996-2.922-7.234l0.041-0.123h5.659
		c0,1.88,0.381,3.23,1.143,4.054c0.761,0.823,1.883,1.235,3.364,1.235c1.249,0,2.185-0.343,2.809-1.029
		C15.205,39.881,15.517,38.969,15.517,37.829z"/>
	<path id="XMLID_70_" d="M28.782,34.764v10.845h-5.803V15.646H33c3.005,0,5.385,0.881,7.141,2.644
		c1.756,1.763,2.634,4.072,2.634,6.925c0,2.868-0.878,5.176-2.634,6.925c-1.756,1.749-4.136,2.624-7.141,2.624H28.782z
		 M28.782,30.215H33c1.303,0,2.295-0.466,2.974-1.399c0.679-0.933,1.019-2.119,1.019-3.56c0-1.468-0.34-2.679-1.019-3.632
		c-0.679-0.954-1.67-1.43-2.974-1.43h-4.219V30.215z"/>
	<path id="XMLID_73_" d="M65.631,34.825c0,3.525-0.995,6.276-2.984,8.252s-4.637,2.964-7.943,2.964
		c-3.307,0-5.948-0.988-7.923-2.964s-2.963-4.727-2.963-8.252V26.47c0-3.512,0.984-6.266,2.953-8.262s4.606-2.994,7.913-2.994
		s5.958,0.998,7.954,2.994s2.994,4.75,2.994,8.262V34.825z M59.848,26.408c0-2.182-0.442-3.828-1.327-4.939
		c-0.885-1.111-2.165-1.667-3.838-1.667c-1.688,0-2.957,0.552-3.807,1.657S49.6,24.214,49.6,26.408v8.417
		c0,2.223,0.429,3.89,1.287,5.001c0.857,1.11,2.13,1.666,3.817,1.666s2.966-0.556,3.838-1.666c0.871-1.111,1.307-2.778,1.307-5.001
		V26.408z"/>
	<path id="XMLID_76_" d="M85.049,20.194h-7.038v25.415h-5.824V20.194h-6.853v-4.548h19.715V20.194z"/>
</g>
</svg>
